<svg xmlns="http://www.w3.org/2000/svg" fill="none" viewBox="7 345.38 2980.4 1794.4">
<path d="M154.15 1492.45C153.7 1493.35 153.7 1494.7 153.25 1495.6H153.7C153.25 1495.6 152.8 1496.05 152.8 1496.95C152.8 1499.65 155.5 1502.35 155.5 1505.5C155.5 1507.75 154.15 1509.55 154.15 1511.35C154.15 1514.5 156.85 1517.65 156.85 1521.7C156.85 1524.4 162.7 1533.4 162.7 1539.7C162.7 1551.4 151 1552.75 140.2 1555.45C135.7 1550.95 128.05 1545.55 128.05 1538.8C128.05 1537.45 128.5 1536.1 128.95 1534.75C127.6 1527.55 123.55 1516.3 123.55 1509.1C123.55 1508.2 124 1506.85 124.9 1505.95C124.45 1506.4 124 1506.85 124 1506.85L123.55 1506.4C123.55 1505.95 124 1505.95 124 1505.5L124.9 1506.85C114.55 1495.6 117.25 1474 115.9 1457.8C115.9 1451.5 117.7 1445.65 117.7 1439.35C117.7 1435.3 116.35 1430.35 116.35 1425.4C116.35 1411.9 117.25 1407.85 121.75 1398.85C121.75 1394.8 115.9 1389.85 115.9 1384.45C115.9 1373.65 118.6 1361.95 118.6 1350.7C118.6 1348 118.15 1345.3 118.15 1342.6C118.15 1337.65 123.1 1332.7 123.1 1327.75C123.1 1323.25 119.95 1318.3 119.95 1314.25C119.95 1310.65 122.2 1307.95 122.2 1304.35C122.2 1292.2 117.7 1289.5 115.9 1289.5C100.6 1289.5 74.5 1303.9 53.8 1303.9C43.9 1303.9 36.25 1301.65 27.7 1297.6C26.35 1296.7 7 1287.25 7 1272.85C7 1268.8 11.5 1264.3 16.45 1264.3C20.95 1264.3 26.35 1267 30.85 1267C36.7 1267 42.1 1266.1 47.95 1264.75C54.7 1263.4 119.95 1250.35 119.95 1244.5C119.95 1242.7 119.05 1241.35 119.05 1239.1C119.05 1235.05 129.85 1232.8 134.8 1232.8C142.45 1232.8 149.2 1238.2 156.85 1238.2C162.25 1238.2 167.2 1235.95 172.15 1235.5C198.7 1232.8 223.45 1224.25 250.45 1224.25C256.75 1224.25 284.65 1224.25 284.65 1238.65C284.65 1258.45 241 1256.65 223.9 1260.25C219.85 1260.25 218.5 1264.3 215.8 1264.3C213.55 1264.3 211.3 1262.5 209.05 1262.05C201.4 1267.9 186.55 1271.95 175.3 1274.2C164.95 1276.45 162.25 1322.8 162.25 1340.35C162.25 1343.5 163.15 1346.2 163.15 1348.9C163.15 1361.5 161.35 1374.55 161.35 1387.6C161.35 1395.7 162.25 1404.25 162.25 1412.35C160 1425.4 161.8 1438.45 160 1451.05C158.65 1460.95 153.25 1473.55 153.25 1482.55C153.25 1484.8 155.05 1487.05 155.05 1488.85C155.05 1490.2 154.15 1492 153.7 1492.9L154.15 1492.45ZM153.25 1495.6C153.7 1496.95 153.7 1498.3 153.7 1499.65C153.7 1498.3 153.7 1496.95 153.25 1495.6ZM154.15 1492.45L153.7 1492.9L154.15 1492.45ZM269.832 1396.15C274.332 1390.75 278.832 1384.9 281.082 1377.7C285.132 1365.1 300.432 1361.05 303.582 1351.15C310.332 1344.4 316.182 1335.4 326.082 1331.35C331.932 1329.1 335.082 1322.35 342.282 1322.35C365.682 1322.35 403.932 1339.45 403.932 1363.75C403.932 1365.1 403.482 1366.9 403.482 1368.25C403.482 1371.4 403.932 1374.1 403.932 1376.8C403.932 1382.2 402.132 1386.7 397.632 1389.85C393.132 1392.1 391.332 1399.3 387.732 1403.35C384.582 1406.5 381.432 1409.2 379.182 1413.7C374.232 1423.15 348.582 1446.55 323.382 1446.55C317.082 1446.55 310.782 1444.75 304.482 1444.75C295.932 1444.75 295.482 1457.35 295.482 1464.55C295.482 1484.8 296.832 1522.6 313.032 1522.6C319.782 1522.6 327.882 1517.2 332.832 1513.15C357.132 1493.35 380.982 1474.45 404.382 1453.75C409.332 1449.25 428.232 1427.65 442.182 1427.65C444.882 1427.65 449.382 1429 449.382 1432.6C449.382 1438.45 435.882 1443.85 431.382 1447C431.382 1447 407.082 1467.25 407.082 1471.75C407.082 1475.35 404.832 1482.55 399.882 1482.55C387.282 1488.85 380.532 1509.1 372.882 1511.8C365.682 1514.5 335.982 1550.95 328.332 1550.95C326.982 1550.95 325.182 1550.5 323.832 1549.6C320.682 1551.4 317.982 1553.2 315.282 1555C297.732 1553.2 285.582 1553.65 276.132 1539.7C275.232 1537.45 273.882 1535.2 272.082 1534.3C264.432 1530.25 259.032 1514.5 259.032 1513.15C259.032 1511.35 259.932 1509.1 259.932 1506.85C259.932 1502.8 254.982 1499.2 254.982 1495.6C254.982 1494.25 256.332 1492.45 256.332 1490.65C256.332 1487.95 254.532 1485.25 254.532 1482.1C254.532 1479.85 256.782 1477.15 256.782 1474.9C256.782 1471.75 253.632 1468.15 253.632 1464.55C253.632 1455.55 253.182 1434.85 259.032 1427.65C265.332 1420 263.532 1405.6 270.282 1396.15C269.382 1397.5 268.482 1399.3 268.482 1401.1C268.482 1402 268.932 1402.9 269.382 1403.35C269.832 1402.9 270.732 1403.35 270.732 1401.55C270.732 1399.75 270.282 1397.95 269.832 1396.15ZM312.582 1418.65C328.782 1415.95 367.482 1403.8 367.482 1375C367.482 1367.35 365.682 1354.75 356.682 1354.75C326.982 1354.75 303.132 1402.45 303.132 1414.6C303.132 1417.75 305.382 1417.75 312.582 1418.65ZM565.816 1426.3C564.466 1429 563.116 1431.25 561.766 1433.5C558.166 1439.35 551.416 1436.2 550.966 1439.8C547.816 1448.35 539.266 1454.2 533.866 1461.4C535.216 1463.65 537.016 1465.9 537.016 1468.6C537.016 1470.4 536.116 1472.65 536.116 1474.45C536.566 1474.45 541.066 1487.5 546.916 1492.45C564.016 1507.75 582.916 1515.4 604.066 1523.05C618.016 1528 628.366 1523.5 628.366 1535.65C628.366 1564.9 615.316 1560.4 594.616 1562.2C587.866 1562.2 585.616 1556.35 580.216 1556.35C579.766 1556.35 579.766 1556.8 579.316 1556.8C576.166 1556.8 574.366 1553.2 570.766 1553.2C569.416 1553.2 567.616 1554.1 566.266 1554.1C551.866 1554.1 531.166 1532.05 514.966 1524.4C510.466 1522.6 510.466 1515.4 505.066 1515.4C500.116 1515.4 496.966 1523.95 492.466 1523.95C479.416 1524.85 478.966 1544.2 468.616 1552.75C469.966 1559.05 470.416 1564.9 471.316 1570.75C453.316 1579.75 451.966 1611.7 451.966 1618.45C451.966 1623.4 457.816 1628.35 457.816 1632.85C457.816 1639.15 450.166 1641.85 445.216 1641.85C435.766 1641.85 429.916 1626.55 429.916 1616.2C429.916 1603.6 432.616 1586.5 443.866 1565.35C449.266 1555 450.616 1532.5 460.516 1529.8C468.616 1527.55 471.316 1517.65 473.566 1510C473.566 1507.75 470.416 1505.5 470.416 1502.35C470.416 1495.15 478.966 1487.05 478.966 1478.5C478.966 1460.95 463.216 1442.5 463.216 1426.3C463.216 1421.35 451.966 1397.95 448.816 1384.9C446.116 1374.55 440.716 1365.1 438.016 1355.2C433.516 1338.55 413.266 1340.35 413.266 1333.15C413.266 1332.25 413.266 1330.9 414.166 1330C424.066 1316.05 439.366 1315.6 457.816 1315.6C483.916 1315.6 497.866 1363.3 504.616 1377.7C509.566 1388.05 505.516 1398.4 510.466 1408.75C511.816 1411.9 521.716 1428.55 528.466 1429.9C532.516 1429.9 535.216 1428.1 535.216 1424.05C535.216 1421.35 533.416 1419.55 533.416 1418.2C537.466 1411.9 542.416 1413.7 545.116 1406.95C547.816 1399.75 558.166 1395.7 560.866 1390.75C566.716 1379.95 566.266 1376.8 576.616 1373.2C582.916 1370.95 592.816 1350.25 607.216 1341.7C612.166 1339.9 614.866 1332.7 618.016 1332.7C620.266 1332.7 642.766 1344.85 642.766 1352.5C642.766 1362.4 623.416 1374.55 612.166 1381.3C604.066 1386.25 599.566 1395.25 592.816 1397.5C591.916 1397.5 588.766 1404.25 586.066 1406.05C574.816 1412.35 575.266 1420.9 565.366 1426.75C565.366 1424.5 564.466 1422.25 563.566 1422.25C562.666 1422.25 561.316 1423.6 561.316 1424.5C561.316 1425.85 563.116 1426.75 563.566 1426.75C564.466 1426.75 565.366 1426.3 565.816 1426.3ZM461.416 1518.1C461.866 1518.55 461.866 1518.55 462.316 1519C461.416 1519.9 460.516 1520.35 459.616 1520.8C459.616 1520.8 459.166 1519.9 458.716 1519.9C459.616 1519 460.516 1518.55 461.416 1518.1ZM651.66 1496.95V1483.45C655.26 1482.55 657.96 1480.75 658.41 1476.7C658.41 1461.85 664.26 1447 669.66 1433.05C675.06 1419.1 678.21 1404.25 693.96 1381.75C706.56 1363.75 711.96 1341.25 743.01 1341.25C763.71 1341.25 774.06 1350.7 784.41 1364.2C796.11 1358.35 803.76 1343.95 817.71 1338.55C825.36 1335.4 829.86 1327.75 841.11 1327.75C851.01 1327.75 864.96 1332.7 864.96 1353.85C864.96 1383.1 851.91 1417.3 851.91 1451.05C851.91 1457.8 844.71 1467.25 844.71 1476.7C844.71 1497.4 840.21 1520.35 840.21 1541.05C840.21 1548.25 840.66 1555 840.66 1561.75C840.66 1564.9 840.21 1568.5 840.21 1571.2C840.21 1574.35 841.11 1577.5 843.81 1580.2C843.36 1582 842.91 1584.25 842.91 1586.05C842.91 1587.85 847.86 1603.6 849.21 1603.6C855.96 1603.6 866.31 1569.85 866.31 1559.95C871.26 1542.4 875.76 1526.2 881.61 1510C882.06 1505.5 886.56 1505.05 887.91 1499.2C892.41 1482.1 890.16 1470.85 902.76 1459.15C904.56 1457.8 905.46 1455.1 905.91 1453.3C909.06 1441.6 922.11 1426.75 931.56 1426.75C934.71 1426.75 941.46 1429 941.46 1433.5C941.46 1434.4 941.01 1435.3 940.56 1435.75C937.41 1440.7 913.56 1469.5 913.56 1483.45C911.76 1496.95 904.56 1509.1 901.41 1522.15C898.26 1534.75 896.01 1551.4 890.16 1562.65C887.01 1567.15 889.71 1574.35 885.21 1580.2C881.61 1586.95 881.61 1602.25 881.61 1611.7C880.26 1621.15 873.96 1626.55 870.81 1633.75C867.21 1641.85 856.41 1641.85 849.66 1641.85C838.41 1641.85 833.01 1634.65 825.36 1627.45C820.86 1623.4 822.66 1618 820.41 1616.65C813.66 1610.8 814.56 1602.7 814.11 1595.05C814.11 1590.55 814.56 1586.05 814.56 1581.55C814.56 1573.9 807.81 1571.65 807.81 1565.35C807.81 1530.25 811.86 1485.7 814.11 1447.45C814.56 1438.45 821.31 1430.35 821.31 1425.4C820.86 1423.15 820.86 1420.45 820.86 1418.2C820.86 1386.7 823.11 1392.55 827.61 1384C827.61 1378.6 825.36 1374.1 824.91 1369.15C820.86 1370.05 817.71 1370.95 814.11 1371.4C806.91 1372.75 812.31 1384 801.06 1384C797.91 1391.2 796.56 1395.25 790.71 1398.4C789.81 1398.4 773.61 1412.8 772.71 1416.85C770.01 1428.1 771.81 1435.3 760.56 1438.45C757.41 1439.35 741.66 1474 732.66 1492.9C710.16 1533.85 711.06 1534.3 689.91 1534.3C675.06 1534.3 658.41 1524.4 658.41 1505.5C657.06 1502.35 660.21 1497.85 651.66 1496.95ZM774.06 1373.2C770.91 1371.85 765.96 1370.5 762.81 1370.5C759.21 1370.5 756.51 1371.4 753.36 1373.2C725.01 1392.1 703.86 1435.75 697.11 1469.95C697.11 1471.75 697.56 1473.1 699.81 1473.1C701.61 1473.1 725.01 1441.6 731.31 1431.25C734.46 1426.3 738.06 1420.9 743.01 1416.85C752.46 1409.2 757.86 1397.5 767.76 1389.85C767.76 1389.85 774.51 1380.85 774.51 1376.35C774.51 1375.45 774.06 1374.55 774.06 1373.2ZM1060.13 1501C1062.83 1503.25 1064.18 1505.95 1064.18 1509.55C1064.18 1520.8 1056.98 1528.45 1044.38 1528.45C1038.08 1528.45 1035.83 1516.3 1035.38 1509.55C1017.83 1509.55 1015.13 1526.65 1000.28 1533.4C986.33 1539.7 978.23 1552.75 968.78 1558.15C958.43 1561.75 951.23 1580.2 944.03 1591.45C940.43 1597.3 941.33 1604.5 940.43 1610.8C940.43 1615.3 946.73 1616.65 949.88 1616.65C953.48 1616.65 957.08 1615.3 960.23 1615.3C962.03 1615.3 963.38 1615.75 965.18 1615.75C974.63 1616.2 971.93 1601.8 983.18 1598.65C995.78 1595.5 998.48 1582 1003.43 1568.95C1007.93 1561.75 1020.08 1546.9 1020.08 1538.35C1020.08 1538.8 1020.08 1538.8 1020.08 1538.8C1021.43 1538.8 1029.53 1524.4 1030.88 1524.4C1037.63 1524.4 1034.93 1535.65 1038.08 1535.65C1039.43 1535.65 1040.78 1535.2 1043.48 1535.2C1044.83 1535.2 1046.63 1536.1 1046.63 1537.9C1046.63 1545.1 1038.53 1552.3 1027.28 1558.6C1025.48 1558.6 1024.13 1558.15 1022.33 1557.7L1023.23 1558.6L1022.78 1557.25C1024.13 1557.7 1025.93 1558.15 1027.73 1558.6C1027.73 1568.05 1028.18 1577.5 1020.08 1580.2C1014.68 1581.1 1016.93 1591 1011.08 1593.25C1002.53 1596.85 1009.28 1609.9 997.58 1609.9C991.73 1609.9 990.83 1618.45 986.33 1619.8C983.18 1620.7 980.48 1622.5 977.78 1624.75C966.98 1633.3 960.68 1633.75 949.88 1633.75C939.98 1633.75 939.53 1641.85 934.13 1641.85C922.88 1641.85 909.38 1618.45 909.38 1610.35C909.38 1609 914.78 1599.55 917.03 1592.8C917.48 1589.2 925.58 1552.3 948.08 1538.8C955.73 1534.3 956.63 1524.85 966.98 1522.15C980.48 1518.55 986.33 1502.8 990.83 1502.8C999.83 1501.45 1000.28 1492 1009.28 1492C1019.18 1492 1021.88 1476.25 1033.58 1473.55C1051.58 1469.05 1049.78 1450.6 1053.38 1427.65C1053.38 1421.8 1049.33 1415.05 1042.58 1415.05C1040.33 1415.05 1038.08 1415.95 1036.28 1415.95C1033.58 1415.95 1030.88 1413.7 1027.73 1413.7C1021.88 1413.7 1012.88 1421.8 998.93 1425.85C989.03 1429 986.78 1431.25 977.33 1437.55C974.18 1436.2 971.93 1434.4 970.13 1434.4C970.13 1434.4 955.73 1447 937.28 1447C934.58 1447 934.13 1440.7 930.98 1438.9C916.58 1433.5 905.78 1425.85 905.78 1412.8C905.78 1411.45 906.68 1410.1 906.68 1408.75C906.68 1405.6 905.33 1402.9 905.33 1399.75C905.33 1395.25 908.93 1390.75 908.93 1385.8C909.38 1375.9 915.23 1368.7 921.53 1362.85C926.03 1358.35 940.88 1342.6 940.88 1342.15C944.03 1330 957.98 1334.5 962.03 1322.35C963.83 1316.95 976.43 1313.8 981.38 1305.7C988.13 1294.9 995.78 1290.85 1003.88 1282.75C1013.33 1284.55 1039.43 1285 1041.23 1300.75C1041.23 1303 1039.88 1306.15 1038.08 1306.6C1025.48 1308.4 1014.23 1319.65 1007.93 1329.1C999.83 1338.55 984.08 1340.35 978.23 1361.95C976.43 1368.7 964.28 1372.3 961.13 1383.1C959.33 1387.15 953.03 1394.35 953.03 1397.95C953.03 1399.75 954.38 1401.1 957.08 1401.1C957.98 1401.1 958.88 1401.1 959.78 1400.65C981.83 1394.8 1012.88 1384 1047.53 1384C1064.63 1384 1071.83 1388.5 1081.28 1397.95C1083.53 1403.8 1080.83 1410.55 1085.78 1415.5C1087.58 1414.15 1090.28 1411.9 1091.63 1411.9C1095.23 1411.9 1095.23 1423.15 1096.13 1427.65C1103.78 1429 1097.93 1438 1110.53 1438C1113.68 1438 1116.38 1437.55 1119.08 1436.2C1127.18 1432.15 1135.73 1434.85 1143.83 1431.7C1150.13 1433.5 1165.43 1433.5 1165.43 1441.6C1165.43 1447.9 1156.43 1454.2 1151.03 1454.2C1148.33 1454.2 1146.08 1453.3 1143.83 1453.3C1134.38 1453.3 1104.23 1459.15 1098.83 1472.65C1097.93 1474.45 1096.13 1475.35 1093.88 1475.35C1092.53 1475.35 1090.73 1474.9 1089.38 1474.9C1084.88 1474.9 1071.83 1485.7 1071.83 1493.35C1071.83 1494.7 1072.28 1496.05 1072.28 1497.4C1072.28 1499.2 1071.38 1499.65 1069.58 1499.65C1067.78 1499.65 1065.98 1499.2 1064.63 1499.2C1060.58 1499.2 1057.43 1502.35 1057.43 1507.75C1057.43 1511.35 1057.88 1514.5 1059.68 1517.65C1057.88 1517.2 1056.53 1515.85 1055.18 1515.85C1052.93 1515.85 1052.93 1517.2 1052.03 1519C1060.13 1519 1059.68 1514.95 1060.58 1507.3C1060.58 1505.05 1060.13 1503.25 1060.13 1501ZM1384.18 1492.45C1383.73 1493.35 1383.73 1494.7 1383.28 1495.6H1383.73C1383.28 1495.6 1382.83 1496.05 1382.83 1496.95C1382.83 1499.65 1385.53 1502.35 1385.53 1505.5C1385.53 1507.75 1384.18 1509.55 1384.18 1511.35C1384.18 1514.5 1386.88 1517.65 1386.88 1521.7C1386.88 1524.4 1392.73 1533.4 1392.73 1539.7C1392.73 1551.4 1381.03 1552.75 1370.23 1555.45C1365.73 1550.95 1358.08 1545.55 1358.08 1538.8C1358.08 1537.45 1358.53 1536.1 1358.98 1534.75C1357.63 1527.55 1353.58 1516.3 1353.58 1509.1C1353.58 1508.2 1354.03 1506.85 1354.93 1505.95C1354.48 1506.4 1354.03 1506.85 1354.03 1506.85L1353.58 1506.4C1353.58 1505.95 1354.03 1505.95 1354.03 1505.5L1354.93 1506.85C1344.58 1495.6 1347.28 1474 1345.93 1457.8C1345.93 1451.5 1347.73 1445.65 1347.73 1439.35C1347.73 1435.3 1346.38 1430.35 1346.38 1425.4C1346.38 1411.9 1347.28 1407.85 1351.78 1398.85C1351.78 1394.8 1345.93 1389.85 1345.93 1384.45C1345.93 1373.65 1348.63 1361.95 1348.63 1350.7C1348.63 1348 1348.18 1345.3 1348.18 1342.6C1348.18 1337.65 1353.13 1332.7 1353.13 1327.75C1353.13 1323.25 1349.98 1318.3 1349.98 1314.25C1349.98 1310.65 1352.23 1307.95 1352.23 1304.35C1352.23 1292.2 1347.73 1289.5 1345.93 1289.5C1330.63 1289.5 1304.53 1303.9 1283.83 1303.9C1273.93 1303.9 1266.28 1301.65 1257.73 1297.6C1256.38 1296.7 1237.03 1287.25 1237.03 1272.85C1237.03 1268.8 1241.53 1264.3 1246.48 1264.3C1250.98 1264.3 1256.38 1267 1260.88 1267C1266.73 1267 1272.13 1266.1 1277.98 1264.75C1284.73 1263.4 1349.98 1250.35 1349.98 1244.5C1349.98 1242.7 1349.08 1241.35 1349.08 1239.1C1349.08 1235.05 1359.88 1232.8 1364.83 1232.8C1372.48 1232.8 1379.23 1238.2 1386.88 1238.2C1392.28 1238.2 1397.23 1235.95 1402.18 1235.5C1428.73 1232.8 1453.48 1224.25 1480.48 1224.25C1486.78 1224.25 1514.68 1224.25 1514.68 1238.65C1514.68 1258.45 1471.03 1256.65 1453.93 1260.25C1449.88 1260.25 1448.53 1264.3 1445.83 1264.3C1443.58 1264.3 1441.33 1262.5 1439.08 1262.05C1431.43 1267.9 1416.58 1271.95 1405.33 1274.2C1394.98 1276.45 1392.28 1322.8 1392.28 1340.35C1392.28 1343.5 1393.18 1346.2 1393.18 1348.9C1393.18 1361.5 1391.38 1374.55 1391.38 1387.6C1391.38 1395.7 1392.28 1404.25 1392.28 1412.35C1390.03 1425.4 1391.83 1438.45 1390.03 1451.05C1388.68 1460.95 1383.28 1473.55 1383.28 1482.55C1383.28 1484.8 1385.08 1487.05 1385.08 1488.85C1385.08 1490.2 1384.18 1492 1383.73 1492.9L1384.18 1492.45ZM1383.28 1495.6C1383.73 1496.95 1383.73 1498.3 1383.73 1499.65C1383.73 1498.3 1383.73 1496.95 1383.28 1495.6ZM1384.18 1492.45L1383.73 1492.9L1384.18 1492.45ZM1713.61 1493.8C1710.01 1499.65 1710.01 1506.4 1709.11 1513.15C1699.66 1522.6 1695.16 1522.6 1695.16 1535.65C1695.16 1537.9 1695.61 1540.15 1695.61 1542.4C1695.61 1566.7 1683.91 1570.3 1676.26 1590.55C1673.56 1595.5 1668.61 1598.65 1664.11 1601.35C1661.86 1600 1658.71 1597.75 1657.36 1597.75C1655.11 1597.75 1652.41 1604.05 1649.71 1604.05C1644.76 1604.05 1625.86 1593.7 1624.96 1585.15C1624.96 1581.55 1616.41 1581.1 1616.41 1574.8C1616.41 1573.45 1616.86 1572.1 1616.86 1570.75C1616.86 1567.6 1612.81 1565.8 1612.81 1563.55C1612.81 1561.75 1614.61 1559.5 1614.61 1557.25C1614.61 1553.65 1608.31 1553.65 1608.31 1548.7C1608.31 1537 1609.66 1526.2 1609.66 1514.95C1609.21 1512.7 1609.21 1510 1609.21 1507.75C1609.21 1501 1610.56 1494.7 1614.16 1488.85C1614.61 1488.4 1614.61 1487.5 1614.61 1486.6C1614.61 1483.9 1613.71 1481.65 1613.71 1479.4C1613.71 1472.2 1620.01 1464.1 1620.01 1455.55C1620.01 1444.75 1625.41 1438.9 1625.41 1432.6C1625.41 1429 1622.26 1425.85 1622.26 1422.25C1622.26 1414.6 1625.41 1405.15 1626.76 1396.6C1626.76 1392.1 1624.96 1389.4 1620.01 1388.5C1617.31 1389.4 1611.46 1391.2 1611.46 1394.8C1611.46 1403.35 1601.56 1408.75 1595.71 1412.8C1591.21 1414.6 1589.86 1424.05 1583.56 1428.1C1576.81 1432.15 1560.61 1478.95 1533.61 1478.95C1526.86 1478.95 1519.21 1474 1512.01 1469.95C1502.11 1464.55 1502.56 1438 1498.06 1422.7C1497.16 1420.9 1496.71 1418.65 1496.71 1416.85C1496.71 1405.6 1504.36 1387.6 1504.36 1381.75C1504.36 1370.95 1511.11 1362.85 1511.11 1352.5C1511.11 1354.3 1520.56 1296.7 1534.06 1296.7C1543.51 1296.7 1554.76 1309.75 1554.76 1314.7C1554.76 1325.95 1543.96 1337.65 1543.51 1350.25C1542.61 1369.6 1534.96 1393.9 1534.96 1417.75C1534.96 1421.8 1536.76 1425.85 1538.11 1429.9C1547.11 1429.9 1574.56 1396.15 1589.41 1384C1602.91 1373.2 1627.66 1352.05 1633.96 1352.05C1653.76 1353.4 1670.86 1356.1 1670.86 1379.5C1670.86 1397.95 1669.51 1435.75 1659.16 1460.5C1655.56 1469.05 1655.56 1479.4 1653.76 1488.4C1654.21 1490.65 1654.21 1493.35 1654.21 1495.6C1654.21 1512.25 1647.01 1529.8 1647.01 1539.25C1647.01 1543.3 1649.71 1557.25 1654.21 1557.25C1660.96 1557.25 1674.46 1530.25 1674.46 1523.5C1674.46 1516.75 1684.81 1512.25 1684.81 1508.2C1684.36 1505.95 1683.46 1503.7 1683.46 1501.45C1683.46 1499.65 1684.81 1496.5 1687.06 1496.5C1688.41 1496.5 1690.66 1498.75 1691.11 1498.75C1690.66 1498.75 1694.71 1493.35 1696.51 1491.55C1703.26 1484.8 1701.01 1453.3 1717.66 1453.3L1717.21 1452.85C1714.96 1461.4 1715.41 1468.6 1713.61 1475.8C1711.81 1475.8 1710.91 1475.8 1710.91 1476.25C1710.91 1476.7 1711.36 1477.15 1711.81 1478.05C1711.81 1478.05 1713.16 1476.7 1713.16 1475.35C1713.16 1479.85 1707.31 1484.8 1707.31 1489.3C1707.31 1492 1711.36 1493.35 1713.61 1493.8ZM1691.11 1532.95C1691.56 1531.15 1692.01 1529.8 1692.01 1528.45C1692.01 1525.3 1691.11 1522.6 1691.11 1519.45C1690.66 1522.15 1690.21 1524.85 1690.21 1527.55C1690.21 1529.35 1690.66 1531.15 1691.11 1532.95ZM1701.01 1500.55L1701.46 1499.2H1700.56L1701.01 1500.55ZM1749.16 1401.55L1747.81 1402.45C1749.16 1403.8 1749.61 1405.15 1749.61 1406.5C1749.61 1413.25 1736.56 1431.25 1736.56 1433.5C1736.56 1435.3 1737.01 1437.1 1737.01 1438.45C1737.01 1450.15 1723.06 1449.25 1717.21 1452.85L1717.66 1453.3C1716.31 1448.8 1714.96 1444.75 1714.06 1440.7C1722.61 1428.1 1731.16 1416.4 1731.16 1384C1731.16 1376.35 1724.41 1369.15 1724.41 1362.85C1724.41 1357 1734.31 1350.25 1741.96 1350.25C1767.61 1350.25 1793.26 1347.1 1819.36 1347.1C1831.06 1347.1 1845.46 1347.1 1845.46 1359.7C1845.46 1367.8 1838.26 1367.8 1833.31 1367.8C1830.16 1367.8 1827.46 1367.35 1824.31 1367.35C1817.56 1367.35 1811.26 1368.25 1804.96 1369.6C1790.56 1372.75 1770.76 1370.95 1761.31 1376.8C1755.91 1387.15 1755.46 1396.15 1747.81 1402.45C1748.26 1402.45 1748.71 1402 1749.16 1401.55ZM1732.06 1439.8C1732.06 1438 1732.06 1438.9 1731.16 1437.55C1731.16 1438 1730.71 1438.45 1730.71 1438.9C1730.71 1439.35 1730.71 1439.8 1731.16 1440.25C1731.16 1440.25 1731.61 1439.8 1732.06 1439.8ZM1713.61 1494.25L1713.16 1492.9C1713.16 1493.35 1713.61 1493.8 1713.61 1494.25ZM1813.79 1450.15C1813.79 1438.9 1826.84 1340.8 1840.79 1340.8C1847.09 1340.8 1855.64 1343.95 1862.39 1345.75C1874.54 1349.35 1882.64 1382.65 1882.64 1398.85C1882.64 1410.1 1881.29 1420.9 1880.39 1431.7C1877.24 1439.8 1879.94 1448.35 1876.79 1456.45C1876.34 1456.9 1876.34 1457.8 1876.34 1458.7C1876.34 1467.25 1876.79 1516.75 1888.49 1516.75C1889.39 1516.75 1890.29 1516.75 1891.19 1515.85C1910.54 1492.9 1927.19 1473.1 1933.49 1443.85C1935.29 1434.85 1941.59 1429.45 1948.79 1429.45C1954.64 1429.45 1959.59 1432.15 1959.59 1437.55C1959.59 1444.3 1946.54 1455.1 1944.29 1464.55C1942.94 1467.7 1938.44 1481.2 1933.49 1485.25C1929.44 1487.95 1930.79 1493.35 1928.54 1497.4C1924.94 1505.05 1917.29 1511.35 1916.39 1517.2C1916.39 1522.15 1907.39 1528.45 1905.14 1535.2C1900.19 1544.2 1882.64 1550.5 1872.29 1550.5C1857.44 1550.5 1838.09 1533.85 1831.34 1518.55C1827.29 1509.55 1815.59 1493.35 1815.59 1480.3C1815.59 1469.95 1813.79 1460.05 1813.79 1450.15ZM1847.54 1276.45C1847.54 1271.95 1848.44 1262.95 1856.09 1262.95C1866.44 1265.2 1878.59 1264.75 1878.59 1276C1878.59 1286.35 1873.19 1298.5 1861.49 1298.5C1850.69 1298.5 1847.54 1284.55 1847.54 1276.45ZM2082.74 1501C2085.44 1503.25 2086.79 1505.95 2086.79 1509.55C2086.79 1520.8 2079.59 1528.45 2066.99 1528.45C2060.69 1528.45 2058.44 1516.3 2057.99 1509.55C2040.44 1509.55 2037.74 1526.65 2022.89 1533.4C2008.94 1539.7 2000.84 1552.75 1991.39 1558.15C1981.04 1561.75 1973.84 1580.2 1966.64 1591.45C1963.04 1597.3 1963.94 1604.5 1963.04 1610.8C1963.04 1615.3 1969.34 1616.65 1972.49 1616.65C1976.09 1616.65 1979.69 1615.3 1982.84 1615.3C1984.64 1615.3 1985.99 1615.75 1987.79 1615.75C1997.24 1616.2 1994.54 1601.8 2005.79 1598.65C2018.39 1595.5 2021.09 1582 2026.04 1568.95C2030.54 1561.75 2042.69 1546.9 2042.69 1538.35C2042.69 1538.8 2042.69 1538.8 2042.69 1538.8C2044.04 1538.8 2052.14 1524.4 2053.49 1524.4C2060.24 1524.4 2057.54 1535.65 2060.69 1535.65C2062.04 1535.65 2063.39 1535.2 2066.09 1535.2C2067.44 1535.2 2069.24 1536.1 2069.24 1537.9C2069.24 1545.1 2061.14 1552.3 2049.89 1558.6C2048.09 1558.6 2046.74 1558.15 2044.94 1557.7L2045.84 1558.6L2045.39 1557.25C2046.74 1557.7 2048.54 1558.15 2050.34 1558.6C2050.34 1568.05 2050.79 1577.5 2042.69 1580.2C2037.29 1581.1 2039.54 1591 2033.69 1593.25C2025.14 1596.85 2031.89 1609.9 2020.19 1609.9C2014.34 1609.9 2013.44 1618.45 2008.94 1619.8C2005.79 1620.7 2003.09 1622.5 2000.39 1624.75C1989.59 1633.3 1983.29 1633.75 1972.49 1633.75C1962.59 1633.75 1962.14 1641.85 1956.74 1641.85C1945.49 1641.85 1931.99 1618.45 1931.99 1610.35C1931.99 1609 1937.39 1599.55 1939.64 1592.8C1940.09 1589.2 1948.19 1552.3 1970.69 1538.8C1978.34 1534.3 1979.24 1524.85 1989.59 1522.15C2003.09 1518.55 2008.94 1502.8 2013.44 1502.8C2022.44 1501.45 2022.89 1492 2031.89 1492C2041.79 1492 2044.49 1476.25 2056.19 1473.55C2074.19 1469.05 2072.39 1450.6 2075.99 1427.65C2075.99 1421.8 2071.94 1415.05 2065.19 1415.05C2062.94 1415.05 2060.69 1415.95 2058.89 1415.95C2056.19 1415.95 2053.49 1413.7 2050.34 1413.7C2044.49 1413.7 2035.49 1421.8 2021.54 1425.85C2011.64 1429 2009.39 1431.25 1999.94 1437.55C1996.79 1436.2 1994.54 1434.4 1992.74 1434.4C1992.74 1434.4 1978.34 1447 1959.89 1447C1957.19 1447 1956.74 1440.7 1953.59 1438.9C1939.19 1433.5 1928.39 1425.85 1928.39 1412.8C1928.39 1411.45 1929.29 1410.1 1929.29 1408.75C1929.29 1405.6 1927.94 1402.9 1927.94 1399.75C1927.94 1395.25 1931.54 1390.75 1931.54 1385.8C1931.99 1375.9 1937.84 1368.7 1944.14 1362.85C1948.64 1358.35 1963.49 1342.6 1963.49 1342.15C1966.64 1330 1980.59 1334.5 1984.64 1322.35C1986.44 1316.95 1999.04 1313.8 2003.99 1305.7C2010.74 1294.9 2018.39 1290.85 2026.49 1282.75C2035.94 1284.55 2062.04 1285 2063.84 1300.75C2063.84 1303 2062.49 1306.15 2060.69 1306.6C2048.09 1308.4 2036.84 1319.65 2030.54 1329.1C2022.44 1338.55 2006.69 1340.35 2000.84 1361.95C1999.04 1368.7 1986.89 1372.3 1983.74 1383.1C1981.94 1387.15 1975.64 1394.35 1975.64 1397.95C1975.64 1399.75 1976.99 1401.1 1979.69 1401.1C1980.59 1401.1 1981.49 1401.1 1982.39 1400.65C2004.44 1394.8 2035.49 1384 2070.14 1384C2087.24 1384 2094.44 1388.5 2103.89 1397.95C2106.14 1403.8 2103.44 1410.55 2108.39 1415.5C2110.19 1414.15 2112.89 1411.9 2114.24 1411.9C2117.84 1411.9 2117.84 1423.15 2118.74 1427.65C2126.39 1429 2120.54 1438 2133.14 1438C2136.29 1438 2138.99 1437.55 2141.69 1436.2C2149.79 1432.15 2158.34 1434.85 2166.44 1431.7C2172.74 1433.5 2188.04 1433.5 2188.04 1441.6C2188.04 1447.9 2179.04 1454.2 2173.64 1454.2C2170.94 1454.2 2168.69 1453.3 2166.44 1453.3C2156.99 1453.3 2126.84 1459.15 2121.44 1472.65C2120.54 1474.45 2118.74 1475.35 2116.49 1475.35C2115.14 1475.35 2113.34 1474.9 2111.99 1474.9C2107.49 1474.9 2094.44 1485.7 2094.44 1493.35C2094.44 1494.7 2094.89 1496.05 2094.89 1497.4C2094.89 1499.2 2093.99 1499.65 2092.19 1499.65C2090.39 1499.65 2088.59 1499.2 2087.24 1499.2C2083.19 1499.2 2080.04 1502.35 2080.04 1507.75C2080.04 1511.35 2080.49 1514.5 2082.29 1517.65C2080.49 1517.2 2079.14 1515.85 2077.79 1515.85C2075.54 1515.85 2075.54 1517.2 2074.64 1519C2082.74 1519 2082.29 1514.95 2083.19 1507.3C2083.19 1505.05 2082.74 1503.25 2082.74 1501ZM2228.44 1427.65C2227.99 1423.15 2227.99 1421.8 2225.74 1421.8C2224.84 1421.8 2223.49 1422.25 2221.69 1422.25C2217.64 1422.25 2214.94 1405.6 2214.94 1400.2C2215.39 1400.2 2215.84 1399.75 2215.84 1399.75C2215.84 1400.65 2215.84 1400.2 2215.39 1400.65C2215.39 1400.65 2215.39 1400.2 2215.84 1399.75C2211.79 1403.8 2209.09 1406.05 2209.09 1409.65C2209.09 1413.25 2215.39 1419.1 2215.39 1423.15C2215.39 1424.95 2208.64 1430.35 2208.64 1438.45C2208.64 1441.6 2209.09 1444.75 2209.09 1447.9C2209.09 1451.95 2208.64 1455.55 2205.04 1457.35V1457.8C2205.04 1451.05 2197.39 1453.75 2197.39 1450.15C2197.39 1447.45 2203.69 1446.55 2203.69 1442.95C2203.69 1440.25 2199.19 1437.55 2199.19 1435.75C2199.19 1434.85 2199.64 1433.5 2199.64 1432.15C2199.64 1427.65 2198.29 1423.15 2198.29 1418.65C2198.29 1415.5 2199.64 1411.9 2199.64 1408.3C2199.64 1406.05 2199.19 1402.9 2199.19 1400.2C2199.19 1391.65 2200.54 1383.1 2205.04 1374.55C2205.49 1373.65 2205.94 1372.3 2205.94 1370.95C2205.94 1368.25 2203.24 1366 2203.24 1363.3C2203.24 1361.5 2203.69 1359.7 2203.69 1357.9C2203.69 1355.2 2201.44 1352.95 2198.29 1352.95C2195.14 1352.95 2195.14 1354.75 2193.79 1355.65C2180.29 1355.65 2177.59 1368.7 2154.64 1368.7C2149.69 1368.7 2124.94 1364.65 2124.94 1351.15C2124.94 1346.2 2137.54 1346.2 2142.94 1345.3C2152.39 1343.5 2162.29 1335.4 2167.24 1335.4C2168.59 1335.4 2181.64 1322.8 2199.19 1320.1C2210.89 1317.4 2212.24 1287.7 2212.24 1271.05C2212.24 1267 2211.79 1262.95 2211.34 1258.9C2216.74 1248.55 2220.79 1241.8 2232.49 1241.8C2247.34 1241.8 2250.94 1252.15 2250.94 1271.5C2250.94 1277.8 2250.04 1284.1 2247.34 1285.9C2247.79 1285.45 2248.24 1285.45 2248.69 1285.45C2248.69 1285.45 2248.69 1285.9 2248.24 1286.35C2248.24 1285.9 2247.79 1285.45 2247.79 1285C2251.84 1287.7 2250.94 1293.55 2255.44 1295.35C2262.64 1292.65 2279.74 1284.1 2293.24 1284.1C2299.54 1284.1 2308.09 1272.85 2313.49 1272.85C2316.19 1272.85 2318.44 1278.7 2321.14 1278.7C2325.19 1278.7 2324.29 1270.6 2330.59 1270.6C2349.04 1270.6 2341.84 1288.15 2346.79 1288.15C2347.24 1288.15 2348.14 1287.7 2348.59 1286.8C2349.49 1288.6 2349.94 1289.95 2349.94 1291.3C2349.94 1294.45 2341.39 1302.55 2339.59 1302.55C2338.69 1302.55 2333.74 1299.85 2331.49 1299.85C2329.69 1299.85 2326.54 1303 2323.84 1303C2322.49 1303 2320.69 1302.55 2319.34 1302.55C2317.54 1302.55 2315.74 1303 2314.39 1303.9C2299.99 1312.9 2289.64 1312.9 2274.79 1316.05C2275.24 1316.05 2245.09 1330.9 2241.94 1338.1C2242.39 1339 2242.39 1340.35 2242.39 1341.25C2242.39 1344.4 2240.14 1347.55 2240.14 1350.7C2240.14 1351.15 2240.14 1352.05 2240.59 1352.5C2239.24 1363.75 2238.34 1374.55 2236.99 1385.8C2236.99 1392.55 2231.14 1397.5 2231.14 1404.25C2231.14 1415.05 2230.24 1418.2 2228.44 1427.65ZM2217.64 1388.5C2217.64 1388.05 2218.09 1387.6 2218.09 1387.15C2218.09 1386.7 2217.64 1386.7 2217.19 1386.7C2216.74 1386.7 2216.74 1387.6 2216.74 1388.05C2216.74 1388.05 2217.19 1388.05 2217.64 1388.5ZM2219.89 1368.7C2219.89 1368.7 2219.44 1369.15 2219.44 1369.6C2219.44 1370.5 2219.89 1370.95 2220.34 1370.95C2220.34 1370.95 2220.79 1370.5 2221.24 1370.05C2221.24 1369.6 2221.24 1368.7 2219.89 1368.7ZM2219.44 1450.6C2220.34 1451.5 2221.24 1451.5 2221.69 1451.5C2223.94 1451.5 2225.74 1450.6 2227.99 1450.6C2226.19 1456.45 2223.04 1460.5 2223.04 1465.9C2223.04 1468.15 2223.94 1470.85 2223.94 1473.1C2223.94 1494.25 2219.89 1512.7 2219.89 1532.5C2219.89 1537 2224.84 1539.7 2224.84 1544.2C2224.84 1547.35 2219.44 1548.7 2219.44 1553.65C2219.44 1555 2219.89 1559.05 2221.69 1559.95C2231.14 1565.35 2219.44 1585.6 2233.39 1585.6C2240.59 1585.6 2255.44 1559.95 2262.64 1546.9C2272.99 1528 2285.59 1511.8 2298.19 1493.8C2299.09 1497.4 2299.99 1499.2 2299.99 1501C2299.99 1504.15 2298.19 1505.95 2293.69 1510.9C2292.79 1516.3 2292.34 1521.7 2292.34 1527.1C2292.34 1537 2295.04 1547.8 2295.04 1556.8C2295.04 1571.65 2284.69 1570.75 2283.34 1578.4C2282.89 1582 2283.79 1590.1 2281.54 1590.1C2280.64 1590.1 2278.84 1588.75 2278.39 1588.75C2271.19 1588.75 2270.74 1589.2 2269.39 1595.5C2269.39 1600.45 2263.99 1599.55 2262.64 1604.5C2262.19 1606.3 2249.14 1618.45 2248.24 1618.45C2247.34 1618.45 2246.44 1618 2245.54 1618C2244.19 1618 2241.49 1618.9 2241.49 1619.8C2239.24 1626.55 2227.09 1628.35 2223.94 1628.35C2212.24 1628.35 2201.44 1617.55 2201.44 1612.15C2201.44 1611.25 2201.44 1610.35 2201.89 1609C2201.89 1599.55 2191.54 1588.75 2191.54 1581.1C2191.54 1579.75 2191.99 1577.95 2191.99 1576.6C2191.99 1574.8 2186.59 1562.2 2186.59 1556.8C2186.59 1555 2196.49 1540.6 2196.49 1532.05C2196.49 1530.25 2196.04 1528.45 2196.04 1526.65C2196.04 1520.35 2201.89 1515.4 2201.89 1510.45C2200.99 1509.1 2200.54 1507.3 2198.74 1507.3C2195.14 1507.3 2192.89 1521.25 2189.29 1521.25C2188.39 1521.25 2186.14 1519.45 2186.14 1518.55C2189.29 1512.7 2189.29 1497.4 2193.79 1497.4C2195.59 1497.4 2196.94 1500.55 2200.09 1500.55C2201.89 1500.55 2205.94 1497.4 2205.94 1493.35C2205.94 1491.55 2204.59 1490.65 2201.44 1489.3H2200.99C2202.79 1486.6 2204.14 1483 2204.14 1479.4C2204.14 1477.6 2203.69 1476.25 2203.69 1474.45C2203.69 1472.65 2203.69 1470.4 2205.94 1469.5C2207.29 1469.5 2207.74 1474 2207.74 1480.3C2207.74 1483.9 2207.29 1487.95 2207.29 1492.45C2207.29 1503.7 2208.19 1514.95 2213.14 1514.95C2214.49 1514.95 2215.84 1510.9 2215.84 1509.1C2215.84 1508.2 2215.39 1506.85 2215.39 1505.95C2215.39 1501.45 2218.54 1497.85 2218.54 1493.8C2218.54 1489.3 2214.04 1485.25 2214.04 1482.1C2214.04 1480.3 2219.44 1473.55 2219.44 1467.7C2219.44 1465.9 2218.54 1464.1 2218.54 1462.3C2218.54 1458.25 2219.89 1454.2 2219.89 1450.15L2219.44 1450.6ZM2209.09 1532.95C2208.64 1535.65 2208.19 1538.35 2207.74 1541.05C2207.74 1541.5 2208.19 1542.4 2208.64 1542.4C2214.04 1542.4 2215.84 1534.75 2215.84 1531.15C2215.84 1528.9 2214.94 1522.15 2213.14 1522.15C2208.19 1524.4 2209.54 1528.9 2209.09 1532.95ZM2275.24 1580.65C2278.39 1580.65 2278.39 1581.1 2278.39 1577.5C2278.39 1575.25 2276.59 1573.9 2274.34 1573.9C2272.09 1573.9 2271.64 1575.25 2270.74 1577.05C2270.74 1580.65 2273.44 1579.75 2275.24 1580.65ZM2279.29 1562.2C2277.94 1561.3 2276.59 1559.05 2275.24 1559.05C2273.89 1559.05 2272.99 1559.95 2272.99 1562.2C2272.99 1563.1 2274.34 1564 2275.69 1564.9C2277.04 1564.9 2277.94 1564.45 2279.29 1562.2ZM2289.64 1536.1C2289.64 1534.75 2289.19 1532.95 2288.74 1532.95C2287.84 1532.95 2287.39 1533.85 2287.39 1534.3C2287.39 1535.2 2287.84 1536.55 2288.74 1536.55C2289.19 1536.55 2289.19 1536.1 2289.64 1536.1ZM2265.79 1590.1C2265.79 1589.65 2265.34 1589.2 2264.89 1588.75C2264.44 1588.75 2263.99 1589.2 2263.54 1589.65C2263.54 1590.55 2263.54 1592.35 2264.44 1592.35C2265.79 1592.35 2265.79 1591.45 2265.79 1590.1ZM2277.04 1544.65C2277.49 1545.1 2277.94 1545.1 2277.94 1545.55C2278.39 1544.65 2278.84 1544.2 2279.29 1543.3C2279.29 1542.85 2278.39 1542.4 2278.39 1541.95C2277.94 1542.85 2277.49 1543.75 2277.04 1544.65ZM2227.99 1427.2C2229.34 1429.9 2230.24 1432.15 2230.24 1434.4C2230.24 1442.5 2219.44 1444.3 2219.44 1450.6L2219.89 1450.15C2218.09 1451.5 2216.29 1453.3 2214.94 1453.3C2213.59 1453.3 2212.24 1451.95 2212.24 1451.05C2212.24 1445.65 2211.79 1439.8 2214.04 1435.3C2214.94 1437.1 2216.74 1438 2218.09 1438.9C2219.89 1429 2222.59 1429.45 2228.44 1427.65L2227.99 1427.2ZM2318.44 1456.9C2325.64 1452.4 2326.09 1439.35 2335.09 1439.35C2335.99 1439.35 2336.89 1439.8 2336.89 1440.7C2336.89 1447.9 2332.39 1460.95 2326.09 1460.95C2323.39 1460.95 2320.69 1458.25 2318.44 1456.9ZM2418.34 1366.9C2416.54 1366.9 2414.29 1366 2414.29 1363.3C2414.29 1356.55 2421.49 1352.5 2427.79 1352.05C2428.24 1352.05 2430.04 1352.95 2430.04 1353.85C2430.04 1363.75 2427.79 1363.75 2418.34 1366.9ZM2356.69 1420C2354.89 1418.2 2354.89 1417.3 2354.89 1415.5C2354.89 1413.7 2356.69 1409.65 2359.84 1409.65C2361.64 1409.65 2362.99 1411.45 2362.99 1412.8C2362.99 1414.6 2358.49 1420 2356.69 1420ZM2192.89 1471.75C2194.24 1474.45 2195.59 1475.35 2195.59 1477.6C2195.59 1478.05 2195.14 1479.4 2194.24 1479.85C2192.44 1479.85 2192.89 1477.15 2192.89 1471.75ZM2345.44 1432.15C2344.54 1432.6 2343.64 1433.05 2342.74 1433.5C2342.29 1432.6 2341.84 1431.7 2341.84 1430.8C2342.29 1429.9 2342.74 1429.45 2343.64 1429.45C2344.99 1429.45 2345.89 1430.35 2345.89 1430.8C2345.89 1431.25 2345.89 1431.7 2345.44 1432.15ZM2308.54 1482.55C2310.79 1482.55 2312.14 1483 2312.14 1484.35C2312.14 1485.7 2310.79 1486.6 2308.99 1486.6C2306.74 1486.6 2305.39 1485.7 2305.39 1484.8C2305.39 1483.9 2306.74 1482.55 2308.54 1482.55ZM2388.19 1382.65C2387.74 1381.75 2386.84 1380.85 2386.84 1380.4C2386.84 1379.05 2388.19 1378.15 2389.09 1378.15C2389.99 1378.15 2390.89 1379.5 2390.89 1380.4C2390.89 1381.3 2389.99 1383.1 2389.09 1383.1C2388.64 1383.1 2388.64 1382.65 2388.19 1382.65ZM2377.39 1390.3C2378.29 1389.4 2379.19 1388.05 2380.54 1388.05C2381.89 1388.05 2382.79 1388.5 2383.69 1389.85C2383.69 1390.75 2382.79 1391.65 2381.89 1391.65C2380.54 1391.65 2378.74 1390.3 2377.39 1390.3ZM2376.94 1389.4C2376.49 1391.2 2376.04 1395.25 2374.24 1395.25C2373.34 1395.25 2372.89 1394.8 2372.89 1394.35C2372.89 1393 2375.59 1391.2 2377.39 1390.3L2376.94 1389.4ZM2305.84 1500.55C2305.84 1501 2305.39 1501 2304.94 1501.45C2304.94 1501 2304.49 1500.55 2304.49 1500.1C2304.49 1499.65 2305.39 1499.65 2305.39 1499.2C2305.84 1499.65 2305.84 1500.1 2305.84 1500.55ZM2201.44 1462.3C2201.44 1464.1 2200.54 1465.45 2198.74 1465.45C2198.29 1465.45 2197.39 1464.1 2196.49 1463.65C2197.84 1462.3 2200.54 1462.75 2201.44 1462.3ZM2205.04 1457.35C2204.59 1459.6 2203.24 1460.95 2201.89 1462.75L2201.44 1462.3C2202.79 1460.5 2203.69 1459.15 2205.04 1457.35ZM2201.44 1489.3L2200.99 1489.75C2201.44 1489.75 2201.44 1489.75 2201.89 1489.3C2201.44 1489.3 2201.44 1489.3 2200.99 1489.3H2201.44ZM2374.81 1396.15C2379.31 1390.75 2383.81 1384.9 2386.06 1377.7C2390.11 1365.1 2405.41 1361.05 2408.56 1351.15C2415.31 1344.4 2421.16 1335.4 2431.06 1331.35C2436.91 1329.1 2440.06 1322.35 2447.26 1322.35C2470.66 1322.35 2508.91 1339.45 2508.91 1363.75C2508.91 1365.1 2508.46 1366.9 2508.46 1368.25C2508.46 1371.4 2508.91 1374.1 2508.91 1376.8C2508.91 1382.2 2507.11 1386.7 2502.61 1389.85C2498.11 1392.1 2496.31 1399.3 2492.71 1403.35C2489.56 1406.5 2486.41 1409.2 2484.16 1413.7C2479.21 1423.15 2453.56 1446.55 2428.36 1446.55C2422.06 1446.55 2415.76 1444.75 2409.46 1444.75C2400.91 1444.75 2400.46 1457.35 2400.46 1464.55C2400.46 1484.8 2401.81 1522.6 2418.01 1522.6C2424.76 1522.6 2432.86 1517.2 2437.81 1513.15C2462.11 1493.35 2485.96 1474.45 2509.36 1453.75C2514.31 1449.25 2533.21 1427.65 2547.16 1427.65C2549.86 1427.65 2554.36 1429 2554.36 1432.6C2554.36 1438.45 2540.86 1443.85 2536.36 1447C2536.36 1447 2512.06 1467.25 2512.06 1471.75C2512.06 1475.35 2509.81 1482.55 2504.86 1482.55C2492.26 1488.85 2485.51 1509.1 2477.86 1511.8C2470.66 1514.5 2440.96 1550.95 2433.31 1550.95C2431.96 1550.95 2430.16 1550.5 2428.81 1549.6C2425.66 1551.4 2422.96 1553.2 2420.26 1555C2402.71 1553.2 2390.56 1553.65 2381.11 1539.7C2380.21 1537.45 2378.86 1535.2 2377.06 1534.3C2369.41 1530.25 2364.01 1514.5 2364.01 1513.15C2364.01 1511.35 2364.91 1509.1 2364.91 1506.85C2364.91 1502.8 2359.96 1499.2 2359.96 1495.6C2359.96 1494.25 2361.31 1492.45 2361.31 1490.65C2361.31 1487.95 2359.51 1485.25 2359.51 1482.1C2359.51 1479.85 2361.76 1477.15 2361.76 1474.9C2361.76 1471.75 2358.61 1468.15 2358.61 1464.55C2358.61 1455.55 2358.16 1434.85 2364.01 1427.65C2370.31 1420 2368.51 1405.6 2375.26 1396.15C2374.36 1397.5 2373.46 1399.3 2373.46 1401.1C2373.46 1402 2373.91 1402.9 2374.36 1403.35C2374.81 1402.9 2375.71 1403.35 2375.71 1401.55C2375.71 1399.75 2375.26 1397.95 2374.81 1396.15ZM2417.56 1418.65C2433.76 1415.95 2472.46 1403.8 2472.46 1375C2472.46 1367.35 2470.66 1354.75 2461.66 1354.75C2431.96 1354.75 2408.11 1402.45 2408.11 1414.6C2408.11 1417.75 2410.36 1417.75 2417.56 1418.65ZM2540.3 1455.1L2536.7 1452.4C2542.1 1451.5 2544.8 1435.3 2548.4 1431.7C2547.95 1429.45 2547.95 1427.65 2547.95 1425.4C2547.95 1417.75 2552.9 1409.2 2552.9 1404.25C2553.8 1387.6 2565.5 1370.05 2572.7 1354.3C2574.95 1348.9 2586.65 1326.4 2590.25 1326.4C2591.15 1326.4 2592.5 1326.85 2593.4 1326.85C2598.35 1326.85 2602.85 1325.05 2607.8 1325.05C2621.75 1325.05 2623.1 1341.25 2625.8 1351.15C2625.8 1353.85 2624.9 1356.1 2624.45 1360.15C2632.1 1349.8 2644.7 1338.55 2646.05 1332.7C2647.85 1325.5 2667.65 1307.05 2682.95 1307.05C2707.25 1307.05 2714 1331.35 2714 1347.55C2714 1364.65 2710.4 1371.4 2697.35 1380.85C2689.25 1386.7 2691.5 1400.2 2684.75 1400.2C2665.85 1400.2 2671.25 1345.75 2664.5 1345.75C2664.05 1345.75 2664.05 1346.2 2663.6 1346.2C2645.6 1357 2622.65 1392.1 2614.1 1413.25C2610.95 1420.45 2608.7 1428.1 2604.2 1434.85C2596.55 1446.1 2599.7 1456 2586.65 1487.05C2580.35 1502.35 2580.8 1519 2572.7 1533.4C2573.15 1532.5 2565.05 1571.65 2547.95 1571.65C2536.7 1571.65 2532.65 1556.35 2532.65 1541.5C2532.65 1537.45 2533.55 1533.85 2533.55 1529.35C2533.55 1523.05 2531.75 1516.75 2531.75 1509.1C2531.75 1500.55 2533.55 1485.25 2539.4 1478.05C2539.4 1477.6 2539.85 1477.15 2539.85 1476.25C2539.85 1473.55 2537.6 1470.85 2537.6 1468.6C2537.6 1464.55 2539.4 1458.7 2540.3 1455.1ZM2597.9 1417.3L2597.45 1415.95L2596.55 1417.3H2597.9ZM2882.1 1501C2884.8 1503.25 2886.15 1505.95 2886.15 1509.55C2886.15 1520.8 2878.95 1528.45 2866.35 1528.45C2860.05 1528.45 2857.8 1516.3 2857.35 1509.55C2839.8 1509.55 2837.1 1526.65 2822.25 1533.4C2808.3 1539.7 2800.2 1552.75 2790.75 1558.15C2780.4 1561.75 2773.2 1580.2 2766 1591.45C2762.4 1597.3 2763.3 1604.5 2762.4 1610.8C2762.4 1615.3 2768.7 1616.65 2771.85 1616.65C2775.45 1616.65 2779.05 1615.3 2782.2 1615.3C2784 1615.3 2785.35 1615.75 2787.15 1615.75C2796.6 1616.2 2793.9 1601.8 2805.15 1598.65C2817.75 1595.5 2820.45 1582 2825.4 1568.95C2829.9 1561.75 2842.05 1546.9 2842.05 1538.35C2842.05 1538.8 2842.05 1538.8 2842.05 1538.8C2843.4 1538.8 2851.5 1524.4 2852.85 1524.4C2859.6 1524.4 2856.9 1535.65 2860.05 1535.65C2861.4 1535.65 2862.75 1535.2 2865.45 1535.2C2866.8 1535.2 2868.6 1536.1 2868.6 1537.9C2868.6 1545.1 2860.5 1552.3 2849.25 1558.6C2847.45 1558.6 2846.1 1558.15 2844.3 1557.7L2845.2 1558.6L2844.75 1557.25C2846.1 1557.7 2847.9 1558.15 2849.7 1558.6C2849.7 1568.05 2850.15 1577.5 2842.05 1580.2C2836.65 1581.1 2838.9 1591 2833.05 1593.25C2824.5 1596.85 2831.25 1609.9 2819.55 1609.9C2813.7 1609.9 2812.8 1618.45 2808.3 1619.8C2805.15 1620.7 2802.45 1622.5 2799.75 1624.75C2788.95 1633.3 2782.65 1633.75 2771.85 1633.75C2761.95 1633.75 2761.5 1641.85 2756.1 1641.85C2744.85 1641.85 2731.35 1618.45 2731.35 1610.35C2731.35 1609 2736.75 1599.55 2739 1592.8C2739.45 1589.2 2747.55 1552.3 2770.05 1538.8C2777.7 1534.3 2778.6 1524.85 2788.95 1522.15C2802.45 1518.55 2808.3 1502.8 2812.8 1502.8C2821.8 1501.45 2822.25 1492 2831.25 1492C2841.15 1492 2843.85 1476.25 2855.55 1473.55C2873.55 1469.05 2871.75 1450.6 2875.35 1427.65C2875.35 1421.8 2871.3 1415.05 2864.55 1415.05C2862.3 1415.05 2860.05 1415.95 2858.25 1415.95C2855.55 1415.95 2852.85 1413.7 2849.7 1413.7C2843.85 1413.7 2834.85 1421.8 2820.9 1425.85C2811 1429 2808.75 1431.25 2799.3 1437.55C2796.15 1436.2 2793.9 1434.4 2792.1 1434.4C2792.1 1434.4 2777.7 1447 2759.25 1447C2756.55 1447 2756.1 1440.7 2752.95 1438.9C2738.55 1433.5 2727.75 1425.85 2727.75 1412.8C2727.75 1411.45 2728.65 1410.1 2728.65 1408.75C2728.65 1405.6 2727.3 1402.9 2727.3 1399.75C2727.3 1395.25 2730.9 1390.75 2730.9 1385.8C2731.35 1375.9 2737.2 1368.7 2743.5 1362.85C2748 1358.35 2762.85 1342.6 2762.85 1342.15C2766 1330 2779.95 1334.5 2784 1322.35C2785.8 1316.95 2798.4 1313.8 2803.35 1305.7C2810.1 1294.9 2817.75 1290.85 2825.85 1282.75C2835.3 1284.55 2861.4 1285 2863.2 1300.75C2863.2 1303 2861.85 1306.15 2860.05 1306.6C2847.45 1308.4 2836.2 1319.65 2829.9 1329.1C2821.8 1338.55 2806.05 1340.35 2800.2 1361.95C2798.4 1368.7 2786.25 1372.3 2783.1 1383.1C2781.3 1387.15 2775 1394.35 2775 1397.95C2775 1399.75 2776.35 1401.1 2779.05 1401.1C2779.95 1401.1 2780.85 1401.1 2781.75 1400.65C2803.8 1394.8 2834.85 1384 2869.5 1384C2886.6 1384 2893.8 1388.5 2903.25 1397.95C2905.5 1403.8 2902.8 1410.55 2907.75 1415.5C2909.55 1414.15 2912.25 1411.9 2913.6 1411.9C2917.2 1411.9 2917.2 1423.15 2918.1 1427.65C2925.75 1429 2919.9 1438 2932.5 1438C2935.65 1438 2938.35 1437.55 2941.05 1436.2C2949.15 1432.15 2957.7 1434.85 2965.8 1431.7C2972.1 1433.5 2987.4 1433.5 2987.4 1441.6C2987.4 1447.9 2978.4 1454.2 2973 1454.2C2970.3 1454.2 2968.05 1453.3 2965.8 1453.3C2956.35 1453.3 2926.2 1459.15 2920.8 1472.65C2919.9 1474.45 2918.1 1475.35 2915.85 1475.35C2914.5 1475.35 2912.7 1474.9 2911.35 1474.9C2906.85 1474.9 2893.8 1485.7 2893.8 1493.35C2893.8 1494.7 2894.25 1496.05 2894.25 1497.4C2894.25 1499.2 2893.35 1499.65 2891.55 1499.65C2889.75 1499.65 2887.95 1499.2 2886.6 1499.2C2882.55 1499.2 2879.4 1502.35 2879.4 1507.75C2879.4 1511.35 2879.85 1514.5 2881.65 1517.65C2879.85 1517.2 2878.5 1515.85 2877.15 1515.85C2874.9 1515.85 2874.9 1517.2 2874 1519C2882.1 1519 2881.65 1514.95 2882.55 1507.3C2882.55 1505.05 2882.1 1503.25 2882.1 1501Z" fill="#F43793"/>
<path d="M173.25 2015.35C145.425 2015.35 120.313 2008 97.9125 1993.3C75.5125 1978.6 57.6625 1958.12 44.3625 1931.87C31.2375 1905.45 24.675 1874.65 24.675 1839.47C24.675 1811.65 28.7 1786.71 36.75 1764.66C44.975 1742.61 56.35 1723.8 70.875 1708.22C85.4 1692.65 102.463 1680.84 122.063 1672.79C141.663 1664.56 162.925 1660.45 185.85 1660.45C217.7 1660.45 244.388 1667.36 265.913 1681.19C287.613 1695.01 304.5 1716.8 316.575 1746.55L253.05 1761.25C244.125 1746.72 233.8 1735.7 222.075 1728.17C210.525 1720.47 197.4 1716.62 182.7 1716.62C165.9 1716.62 150.588 1721.61 136.763 1731.59C122.938 1741.39 111.913 1755.47 103.688 1773.85C95.4625 1792.22 91.35 1814.1 91.35 1839.47C91.35 1863.27 94.9375 1884.1 102.113 1901.95C109.463 1919.8 119.7 1933.71 132.825 1943.69C145.95 1953.66 161.175 1958.65 178.5 1958.65C193.2 1958.65 206.325 1955.41 217.875 1948.94C229.6 1942.29 238.788 1932.84 245.438 1920.59C252.263 1908.34 255.675 1893.55 255.675 1876.22H269.325C269.325 1904.57 265.913 1929.16 259.088 1949.99C252.438 1970.81 242.025 1986.91 227.85 1998.29C213.675 2009.66 195.475 2015.35 173.25 2015.35ZM264.6 2008L255.675 1932.92V1874.12L179.025 1872.55V1833.17H315V2008H264.6ZM365.273 1753.37H435.623L503.348 1953.92H492.323L550.598 1753.37H613.598L515.948 2054.2C505.973 2084.3 493.635 2106.09 478.935 2119.56C464.41 2133.04 446.648 2139.78 425.648 2139.78C413.573 2139.78 401.76 2138.38 390.21 2135.58C378.835 2132.95 367.198 2128.75 355.298 2122.98V2068.38C364.923 2074.33 374.198 2078.7 383.123 2081.5C392.223 2084.3 401.323 2085.7 410.423 2085.7C418.648 2085.7 425.823 2083.43 431.948 2078.88C438.248 2074.5 443.673 2068.29 448.223 2060.24C452.773 2052.36 456.623 2043.18 459.773 2032.68L467.648 2008L365.273 1753.37ZM1014.65 2008V1858.9C1014.65 1840 1010.1 1825.74 1001 1816.11C991.899 1806.49 979.999 1801.67 965.299 1801.67C946.749 1801.67 932.136 1809.2 921.461 1824.25C910.786 1839.3 905.449 1862.05 905.449 1892.5H879.724C879.724 1865.72 882.174 1843.06 887.074 1824.51C892.149 1805.79 899.236 1790.74 908.336 1779.36C917.611 1767.81 928.461 1759.41 940.886 1754.16C953.311 1748.74 967.049 1746.02 982.099 1746.02C1002.92 1746.02 1020.34 1750.75 1034.34 1760.2C1048.51 1769.47 1059.19 1782.6 1066.36 1799.57C1073.54 1816.55 1077.12 1836.32 1077.12 1858.9V2008H1014.65ZM668.674 2008V1753.37H722.749L729.574 1796.95C737.974 1779.97 749.086 1767.29 762.911 1758.89C776.736 1750.31 792.574 1746.02 810.424 1746.02C831.424 1746.02 848.924 1750.75 862.924 1760.2C877.099 1769.47 887.686 1782.6 894.686 1799.57C901.861 1816.55 905.449 1836.32 905.449 1858.9V2008H843.499V1858.9C843.499 1840 838.949 1825.74 829.849 1816.11C820.749 1806.49 808.849 1801.67 794.149 1801.67C781.724 1801.67 770.699 1805.09 761.074 1811.91C751.624 1818.74 744.186 1829.06 738.761 1842.89C733.336 1856.54 730.624 1873.6 730.624 1894.07V2008H668.674ZM1341.84 2008V1858.9C1341.84 1840 1337.29 1825.74 1328.19 1816.11C1319.09 1806.49 1307.19 1801.67 1292.49 1801.67C1280.06 1801.67 1269.04 1805.09 1259.41 1811.91C1249.96 1818.74 1242.53 1829.06 1237.1 1842.89C1231.68 1856.54 1228.96 1873.6 1228.96 1894.07H1208.49C1208.49 1861 1212.6 1833.52 1220.83 1811.65C1229.05 1789.6 1240.69 1773.15 1255.74 1762.3C1270.79 1751.45 1288.46 1746.02 1308.76 1746.02C1329.76 1746.02 1347.26 1750.75 1361.26 1760.2C1375.44 1769.47 1386.03 1782.6 1393.03 1799.57C1400.2 1816.55 1403.79 1836.32 1403.79 1858.9V2008H1341.84ZM1167.01 2008V1753.37H1221.09L1228.96 1803.77V2008H1167.01ZM1656.34 2008L1648.46 1946.05V1843.67C1648.46 1825.82 1644.79 1812.61 1637.44 1804.04C1630.26 1795.46 1618.01 1791.17 1600.69 1791.17C1590.71 1791.17 1582.05 1792.66 1574.7 1795.64C1567.35 1798.61 1561.66 1802.9 1557.64 1808.5C1553.79 1813.92 1551.86 1820.57 1551.86 1828.45H1484.14C1484.14 1809.2 1488.78 1793.54 1498.05 1781.46C1507.33 1769.21 1520.63 1760.29 1537.95 1754.69C1555.45 1748.91 1576.36 1746.02 1600.69 1746.02C1622.74 1746.02 1641.99 1749.61 1658.44 1756.79C1674.89 1763.79 1687.66 1774.64 1696.76 1789.34C1705.86 1804.04 1710.41 1822.85 1710.41 1845.77V2008H1656.34ZM1572.86 2015.35C1550.99 2015.35 1532.7 2011.59 1518 2004.06C1503.48 1996.36 1492.54 1986.3 1485.19 1973.87C1477.84 1961.45 1474.16 1947.97 1474.16 1933.45C1474.16 1917.35 1478.36 1903.87 1486.76 1893.02C1495.34 1882 1507.41 1873.77 1522.99 1868.35C1538.56 1862.75 1556.94 1859.95 1578.11 1859.95C1591.94 1859.95 1604.98 1861 1617.23 1863.1C1629.65 1865.2 1641.99 1868 1654.24 1871.5V1907.72C1644.61 1904.57 1634.11 1902.12 1622.74 1900.37C1611.36 1898.62 1600.69 1897.75 1590.71 1897.75C1576.01 1897.75 1563.94 1900.46 1554.49 1905.89C1545.04 1911.31 1540.31 1920.5 1540.31 1933.45C1540.31 1942.9 1544.16 1951.04 1551.86 1957.86C1559.56 1964.69 1571.81 1968.1 1588.61 1968.1C1601.39 1968.1 1612.24 1965.3 1621.16 1959.7C1630.09 1954.1 1636.83 1947.1 1641.38 1938.7C1646.1 1930.3 1648.46 1921.9 1648.46 1913.5H1663.16C1663.16 1931.87 1659.75 1948.85 1652.93 1964.42C1646.1 1979.82 1635.95 1992.16 1622.48 2001.44C1609.18 2010.71 1592.64 2015.35 1572.86 2015.35ZM1896.24 2015.35C1871.74 2015.35 1850.66 2012.03 1832.98 2005.37C1815.48 1998.55 1802.01 1988.84 1792.56 1976.24C1783.11 1963.46 1778.29 1948.15 1778.12 1930.3H1835.34C1835.87 1942.9 1840.86 1952.09 1850.31 1957.86C1859.76 1963.64 1872.62 1966.52 1888.89 1966.52C1897.82 1966.52 1905.69 1965.21 1912.52 1962.59C1919.52 1959.96 1924.94 1956.37 1928.79 1951.82C1932.64 1947.27 1934.57 1942.2 1934.57 1936.6C1934.57 1929.42 1931.94 1923.82 1926.69 1919.8C1921.62 1915.6 1913.39 1911.75 1902.02 1908.25L1846.37 1888.3C1826.42 1881.12 1811.11 1871.67 1800.43 1859.95C1789.76 1848.22 1784.42 1834.22 1784.42 1817.95C1784.42 1796.42 1794.13 1779.1 1813.56 1765.97C1833.16 1752.67 1859.32 1746.02 1892.04 1746.02C1924.59 1746.02 1949.71 1753.2 1967.38 1767.55C1985.23 1781.72 1994.42 1799.75 1994.94 1821.62H1936.67C1935.79 1813.22 1931.77 1806.57 1924.59 1801.67C1917.42 1796.77 1906.57 1794.32 1892.04 1794.32C1878.92 1794.32 1868.59 1797.04 1861.07 1802.46C1853.72 1807.71 1850.04 1813.92 1850.04 1821.1C1850.04 1833.17 1860.37 1842.27 1881.02 1848.4L1941.39 1870.97C1960.99 1877.62 1976.22 1886.2 1987.07 1896.7C1997.92 1907.2 2003.34 1920.5 2003.34 1936.6C2003.34 1950.07 1998.79 1962.85 1989.69 1974.92C1980.77 1986.82 1968.26 1996.54 1952.16 2004.06C1936.06 2011.59 1917.42 2015.35 1896.24 2015.35ZM2164.17 2015.35C2149.12 2015.35 2135.3 2012.55 2122.7 2006.95C2110.27 2001.35 2100.3 1992.77 2092.77 1981.22C2085.42 1969.67 2081.75 1954.97 2081.75 1937.12V1685.65H2143.7V1935.02C2143.7 1956.02 2153.67 1966.52 2173.62 1966.52C2179.75 1966.52 2185.87 1965.82 2192 1964.42C2198.12 1963.02 2205.12 1960.92 2213 1958.12L2221.92 2001.7C2212.12 2005.55 2202.59 2008.79 2193.31 2011.41C2184.04 2014.04 2174.32 2015.35 2164.17 2015.35ZM2046.05 1794.32V1753.37H2213V1794.32H2046.05ZM2321.43 1706.65C2309.35 1706.65 2299.9 1703.5 2293.08 1697.2C2286.43 1690.72 2283.1 1681.8 2283.1 1670.42C2283.1 1659.4 2286.43 1650.65 2293.08 1644.17C2299.9 1637.52 2309.35 1634.2 2321.43 1634.2C2333.33 1634.2 2342.69 1637.52 2349.51 1644.17C2356.34 1650.65 2359.75 1659.4 2359.75 1670.42C2359.75 1681.8 2356.34 1690.72 2349.51 1697.2C2342.69 1703.5 2333.33 1706.65 2321.43 1706.65ZM2290.45 2008V1752.32H2352.4V2008H2290.45ZM2554.07 2015.35C2532.72 2015.35 2512.86 2009.84 2494.48 1998.81C2476.28 1987.61 2461.49 1971.95 2450.12 1951.82C2438.92 1931.52 2433.32 1907.72 2433.32 1880.42C2433.32 1851.55 2438.92 1827.14 2450.12 1807.19C2461.49 1787.06 2476.28 1771.84 2494.48 1761.51C2512.86 1751.19 2532.72 1746.02 2554.07 1746.02C2570.69 1746.02 2585.31 1748.74 2597.91 1754.16C2610.68 1759.41 2621.53 1766.59 2630.46 1775.69C2639.38 1784.61 2646.38 1794.59 2651.46 1805.61C2656.53 1816.64 2659.77 1827.75 2661.17 1838.95L2598.69 1840.52C2595.89 1829.32 2590.64 1820.05 2582.94 1812.7C2575.42 1805.35 2565.62 1801.67 2553.54 1801.67C2543.57 1801.67 2534.21 1804.47 2525.46 1810.07C2516.71 1815.5 2509.53 1823.99 2503.93 1835.54C2498.51 1847.09 2495.79 1862.05 2495.79 1880.42C2495.79 1897.92 2498.33 1912.54 2503.41 1924.26C2508.66 1935.81 2515.66 1944.56 2524.41 1950.51C2533.16 1956.29 2542.87 1959.17 2553.54 1959.17C2569.29 1959.17 2580.76 1955.41 2587.93 1947.89C2595.11 1940.19 2598.69 1929.95 2598.69 1917.17H2661.17C2661.17 1935.2 2657.06 1951.65 2648.83 1966.52C2640.61 1981.4 2628.53 1993.3 2612.61 2002.22C2596.68 2010.97 2577.17 2015.35 2554.07 2015.35ZM2830.37 2015.35C2805.87 2015.35 2784.79 2012.03 2767.11 2005.37C2749.61 1998.55 2736.14 1988.84 2726.69 1976.24C2717.24 1963.46 2712.42 1948.15 2712.25 1930.3H2769.47C2770 1942.9 2774.99 1952.09 2784.44 1957.86C2793.89 1963.64 2806.75 1966.52 2823.02 1966.52C2831.95 1966.52 2839.82 1965.21 2846.65 1962.59C2853.65 1959.96 2859.07 1956.37 2862.92 1951.82C2866.77 1947.27 2868.7 1942.2 2868.7 1936.6C2868.7 1929.42 2866.07 1923.82 2860.82 1919.8C2855.75 1915.6 2847.52 1911.75 2836.15 1908.25L2780.5 1888.3C2760.55 1881.12 2745.24 1871.67 2734.56 1859.95C2723.89 1848.22 2718.55 1834.22 2718.55 1817.95C2718.55 1796.42 2728.26 1779.1 2747.69 1765.97C2767.29 1752.67 2793.45 1746.02 2826.17 1746.02C2858.72 1746.02 2883.84 1753.2 2901.51 1767.55C2919.36 1781.72 2928.55 1799.75 2929.07 1821.62H2870.8C2869.92 1813.22 2865.9 1806.57 2858.72 1801.67C2851.55 1796.77 2840.7 1794.32 2826.17 1794.32C2813.05 1794.32 2802.72 1797.04 2795.2 1802.46C2787.85 1807.71 2784.17 1813.92 2784.17 1821.1C2784.17 1833.17 2794.5 1842.27 2815.15 1848.4L2875.52 1870.97C2895.12 1877.62 2910.35 1886.2 2921.2 1896.7C2932.05 1907.2 2937.47 1920.5 2937.47 1936.6C2937.47 1950.07 2932.92 1962.85 2923.82 1974.92C2914.9 1986.82 2902.39 1996.54 2886.29 2004.06C2870.19 2011.59 2851.55 2015.35 2830.37 2015.35Z" fill="black"/>
<path fill-rule="evenodd" clip-rule="evenodd" d="M2600.83 415.558C2598.19 417.534 2594.24 418.193 2591.28 419.84C2588.64 421.157 2584.69 422.474 2584.03 424.45C2582.38 431.367 2577.44 436.307 2572.5 440.589C2567.23 445.858 2562.62 451.128 2560.32 458.044C2557.35 466.937 2554.06 476.159 2551.43 484.722C2549.45 491.309 2546.16 496.578 2538.91 498.554C2536.93 499.213 2533.31 499.543 2532.32 498.555C2531.33 497.566 2531.01 493.944 2531.66 491.968C2534.96 485.381 2538.58 478.464 2543.19 472.536C2549.78 463.314 2553.4 453.763 2552.41 442.236C2552.08 437.954 2547.8 434.99 2543.85 437.625C2541.22 439.601 2539.24 442.894 2537.59 445.859C2534.3 452.446 2532.98 460.35 2528.7 465.949C2515.2 482.087 2499.06 495.591 2480.29 505.142C2462.5 513.705 2444.39 521.939 2426.27 530.173C2418.37 534.125 2410.46 538.077 2402.56 541.371C2392.02 545.323 2380.82 547.958 2370.28 552.569C2354.14 558.827 2338.99 566.073 2327.47 579.576C2324.5 583.199 2320.22 585.505 2315.94 587.151C2312.98 588.139 2308.04 588.469 2305.73 586.822C2296.84 579.906 2286.3 576.612 2275.76 573.978C2266.54 571.343 2259.62 566.403 2254.68 558.169C2251.39 552.241 2248.42 551.911 2243.15 555.864C2238.21 560.145 2232.61 561.133 2227.02 560.145C2219.11 558.828 2211.54 557.84 2203.63 556.523C2192.1 554.217 2184.2 558.17 2179.26 569.038C2177.94 571.673 2177.28 574.308 2176.3 576.613C2172.34 588.47 2167.73 599.668 2157.19 607.572C2150.61 612.842 2144.68 618.112 2138.09 623.381C2131.5 628.651 2129.53 628.651 2123.27 623.052C2109.77 610.866 2095.6 599.998 2078.48 592.752C2071.56 589.788 2065.3 585.507 2059.38 580.896C2051.47 574.967 2044.56 567.392 2036.65 561.464C2026.44 553.889 2017.88 544.668 2010.63 534.128C1998.78 515.685 1983.96 500.206 1965.18 488.679C1956.62 483.409 1948.72 477.481 1940.81 471.553C1931.59 464.307 1923.36 456.732 1913.8 449.816C1907.55 444.876 1905.57 438.947 1905.9 431.372C1906.23 425.115 1906.56 418.857 1907.22 412.27C1907.88 405.024 1908.54 397.779 1909.52 390.204C1910.18 384.934 1912.49 379.994 1913.15 374.724C1914.13 370.442 1911.17 364.844 1908.21 364.514C1903.6 363.856 1901.29 367.478 1900.3 371.101C1898.98 376.371 1898 381.311 1896.68 386.581C1896.02 389.216 1895.03 391.521 1894.04 393.826C1891.74 386.251 1890.42 379.006 1889.1 371.76C1888.12 366.161 1887.13 359.904 1885.48 354.305C1884.82 352.329 1881.53 351.011 1879.55 349.694C1877.91 351.999 1874.94 354.305 1874.61 356.61C1874.28 361.55 1875.6 366.82 1875.6 372.09C1875.93 375.054 1875.6 378.018 1875.93 380.982C1874.94 381.311 1874.28 381.311 1873.3 381.641C1872.31 378.018 1871.32 373.736 1870.33 370.113C1868.68 363.197 1867.37 355.952 1865.06 349.035C1864.73 347.388 1862.43 345.083 1860.78 345.412C1859.46 345.412 1857.82 347.718 1856.83 349.365C1855.84 350.353 1855.84 352.329 1854.85 353.317C1853.86 354.305 1851.89 355.622 1850.24 355.293C1843 354.634 1840.03 356.94 1840.36 363.856C1840.36 373.078 1840.69 382.629 1841.02 391.521C1841.35 403.049 1841.35 414.905 1841.35 426.762C1841.35 432.031 1841.02 436.972 1834.76 438.618C1830.48 439.607 1827.52 442.571 1827.84 446.852C1828.5 451.463 1832.78 451.792 1836.74 452.451C1840.69 453.11 1844.97 452.122 1848.26 453.439C1859.13 459.038 1869.67 464.966 1877.58 474.847C1892.73 493.949 1908.21 513.38 1923.03 532.812C1935.54 548.62 1949.7 562.782 1966.83 573.98C1974.07 578.591 1980.99 584.19 1986.92 590.118C2004.37 608.232 2021.5 626.676 2038.96 645.448C2044.23 651.377 2047.19 658.293 2045.21 666.197C2043.57 671.796 2041.92 677.395 2039.29 682.665C2033.03 695.51 2026.44 708.025 2020.51 721.199C2014.25 734.702 2010.3 749.194 2012.28 764.344C2014.58 778.506 2014.58 792.338 2012.61 806.171C2010.96 820.992 2012.28 835.483 2017.88 848.987C2032.04 881.592 2049.82 912.551 2071.23 941.204C2078.15 950.755 2087.04 958.989 2097.58 964.917C2102.19 967.552 2106.47 971.175 2110.09 974.797C2116.35 981.055 2116.35 984.348 2111.41 991.265C2108.12 995.876 2103.84 1000.16 2101.2 1005.43C2088.36 1030.79 2066.95 1049.56 2046.53 1068C2031.38 1081.84 2017.54 1096.33 2006.35 1113.45C2001.08 1121.36 1995.15 1129.26 1987.9 1134.53C1950.69 1163.85 1914.13 1193.82 1870.98 1213.91C1854.85 1221.48 1838.38 1228.73 1822.24 1236.96C1797.54 1249.81 1777.12 1268.25 1758.35 1288.34C1757.36 1289.33 1756.37 1290.98 1755.71 1292.29C1755.38 1294.6 1754.72 1297.89 1756.04 1299.21C1757.36 1300.53 1760.98 1300.86 1762.96 1300.2C1766.91 1299.54 1770.2 1297.56 1773.82 1296.57C1789.96 1293.61 1806.1 1292.62 1820.59 1283.4C1826.52 1279.45 1832.78 1281.75 1836.4 1287.35C1841.67 1295.92 1849.9 1298.88 1859.13 1298.88C1871.31 1299.21 1878.56 1296.57 1880.86 1285.05C1883.83 1267.59 1895.03 1257.05 1909.85 1250.79C1925.98 1243.88 1943.11 1238.61 1960.57 1233.01C1969.13 1230.37 1978.35 1229.71 1986.26 1225.76C2005.36 1217.2 2022.81 1205.01 2036.98 1189.53C2050.81 1174.38 2064.64 1158.57 2078.47 1143.42C2086.71 1133.87 2096.26 1126.96 2108.45 1122.02C2125.57 1114.77 2143.36 1107.52 2159.49 1097.97C2181.89 1084.8 2202.97 1069.65 2224.38 1054.83C2243.81 1041.32 2261.59 1025.52 2276.74 1007.07C2285.97 995.216 2294.86 983.03 2297.82 968.209C2299.14 960.963 2302.43 955.035 2308.36 950.424C2310.67 948.777 2312.64 946.801 2314.62 944.825C2327.46 931.98 2341.3 920.782 2357.11 911.56C2376.21 900.362 2394.32 888.176 2410.46 872.697C2412.77 870.391 2416.06 869.074 2418.69 867.098C2425.28 862.487 2432.53 857.876 2439.11 853.265C2459.2 839.103 2471.39 820.33 2476 795.958C2477.98 784.76 2481.27 772.903 2485.22 762.364C2493.46 740.297 2502.35 718.89 2511.57 697.152C2519.15 678.379 2526.72 659.606 2535.62 641.492C2545.83 621.402 2557.68 602.299 2569.21 582.868C2573.82 575.622 2578.76 568.706 2583.7 561.789C2589.96 553.555 2595.23 544.992 2597.53 534.782C2598.85 529.513 2600.17 524.243 2601.82 518.644C2606.1 505.141 2610.38 490.979 2614.99 477.146C2621.58 457.385 2618.94 437.624 2615.65 417.863C2614 412.264 2607.74 410.618 2600.83 415.558ZM2230.64 779.163C2217.79 791.349 2210.55 805.84 2211.53 823.954C2211.53 827.248 2209.89 830.871 2207.58 833.176C2205.28 836.14 2201.32 834.823 2200.67 830.212C2200.99 829.224 2200.67 827.577 2201.32 826.26C2206.92 808.804 2207.25 791.349 2206.26 773.235C2205.61 754.791 2212.52 739.312 2225.04 726.138C2229.32 721.856 2234.92 724.161 2237.22 730.419C2237.88 732.395 2238.21 734.042 2239.2 735.689C2240.85 739.311 2243.48 740.629 2247.43 739.97C2249.08 739.641 2250.4 739.641 2252.04 739.311C2256.66 739.311 2258.96 740.958 2256.98 745.569C2255.01 750.838 2251.72 756.108 2248.09 760.39C2242.82 767.635 2236.89 773.564 2230.64 779.163ZM2517.5 556.85C2514.21 562.119 2509.93 566.401 2505.97 571.012C2481.27 597.03 2455.58 622.061 2434.83 651.374C2430.22 657.961 2425.94 664.877 2421.66 671.793C2411.78 687.602 2408.82 704.399 2409.47 722.843C2410.13 744.58 2404.86 764.999 2390.7 781.796C2379.83 794.641 2364.68 801.228 2349.53 807.157C2335.04 812.426 2320.55 817.696 2306.06 823.624C2295.19 827.906 2287.61 822.966 2287.94 810.78C2287.94 806.828 2288.6 802.217 2289.92 798.923C2295.52 784.761 2295.85 769.94 2295.85 754.79C2295.85 752.156 2296.18 749.85 2295.85 746.886C2295.19 740.958 2297.49 736.017 2301.12 731.077C2305.73 725.149 2305.73 721.197 2300.79 715.598C2297.82 711.975 2298.81 709.011 2300.79 705.717C2305.4 698.472 2310.01 691.884 2314.62 684.639C2319.89 676.076 2323.51 666.524 2324.83 656.644C2325.82 649.069 2329.77 643.799 2335.04 638.53C2344.59 628.978 2356.12 622.062 2367.98 615.475C2389.71 604.277 2411.12 592.091 2433.19 581.222C2449.33 572.988 2462.83 560.802 2476.66 549.604C2482.26 545.323 2489.18 542.358 2495.11 539.065C2501.03 539.723 2505.97 539.394 2510.59 540.711C2518.16 542.358 2521.78 549.933 2517.5 556.85Z" fill="black"/>
</svg>