<svg xmlns="http://www.w3.org/2000/svg" xmlns:xlink="http://www.w3.org/1999/xlink" version="1.1" id="Layer_1" x="0px" y="0px" style="enable-background:new 0 0 283.5 283.5;" xml:space="preserve" viewBox="12.3 73.3 265.05 111.01">
<style type="text/css">
	.st0{stroke:none;fill-rule:evenodd;clip-rule:evenodd;fill:rgb(97.24884%,81.568909%,45.878601%);fill-opacity:1;}
</style>
<g>
	<path class="st0" d="M187,73.3c0.6,0.4,1.3,0.7,1.8,1.1c0.9,0.8,1.9,1.2,3.1,1.2c0.7,0,0.9,0.2,0.9,0.9c0,0.7,0.1,1.4,0.2,2.4   c0.9-0.7,1.6-1.2,2.1-1.6c0.8,0.2,1.4,0.3,2.1,0.5c0.2,0.1,0.6,0.2,0.6,0.4c0.3,0.9,0.9,1.1,1.7,1.1c0.2,0,0.5,0,0.7,0   c1.9,0,2,0.1,1.9,2c0,1.1-0.2,2.1-0.2,3.2c0,1.1,0.3,2.2,1.1,3c1.8,2,3.7,4,4.7,6.7c0.1,0.3,0.8,0.6,1.2,0.7c2,0.4,4,0.9,6.1,1.2   c3.1,0.4,5.5,2,7.4,4.3c1.5,1.8,2.7,3.6,4.2,5.4c0.6,0.7,1.4,1.5,2.2,1.9c2.5,1.2,4.6,2.8,6.6,4.7c0.3,0.3,0.3,0.8,0.5,1.1   c0.3,0.5,0.8,0.8,1.2,1.3c0.3,0.4,0.8,0.9,0.7,1.2c-0.2,0.8-0.9,1-1.6,0.8c-0.7-0.2-1.3-0.4-2.1-0.7c0.1,0.3,0.2,0.5,0.4,0.8   c-0.5,0.3-0.9,0.5-1.5,0.9c0.8,0.9,1.5,1.8,2.2,2.7c-0.7,1.1-1.3,1.3-2.5,0.7c-0.6-0.3-1.1-0.8-1.5-1.3c-1.1-1.3-2.1-2.7-3.1-4.1   c-1.3-1.7-2.7-3.2-4.7-4.3c-1.4-0.8-2.7-0.7-4.1-0.7c-0.2,0.9-0.4,1.8-0.7,2.6c-0.3,0.8-0.6,1.5-1.1,2.2c-0.9,1.2-1.7,1.3-3.1,0.5   c1.6-3.5,1.7-7.1,0.1-10.8c-0.2,0-0.6,0-1,0.1c-2,0.4-3.9,0.7-5.9,1.1c-0.4,0.1-0.8,0.4-1.2,0.6c-1.6,1-3.1,2.1-4.7,3.2   c-0.3,0.2-0.7,0.4-1,0.7c-2.3,2.3-4.9,4-7.9,5.2c-1.1,0.5-2.4,0.5-3.6,0.8c-0.7,0.2-1.4,0.3-1.7,1.1c-0.1,0.2-0.4,0.3-0.7,0.5   c-0.8,0.5-1.7,1-2.4,1.6c-1.7,1.7-3.6,3.3-5.9,3.9c-4.4,1.2-6.9,4.5-9,8.2c-0.6,1-0.5,2.4-0.7,3.5c-1-1-1-2.7,0.2-6.4   c-2.5,0.7-2.4,6.3,0,10.2c-0.5-0.7-1.1-1.3-1.5-2.1c-0.4-0.8-0.7-1.7-0.9-2.6c-0.2-0.9-0.1-1.8-0.2-2.7c-0.1,0-0.2,0-0.3,0   c-0.2,0.8-0.4,1.7-0.6,2.5c-0.1,0.9-0.2,1.7-0.4,2.6c-0.9-2.1-1.3-4.3-0.9-6.6c0.4-2.4,1.7-4.2,3.8-5.5c-1.9-0.2-3.8-0.4-5.5,1   c-1.2,0.9-1.4,2.3-1.1,3.6c0.2,1.1,0.7,2.2,1.1,3.2c0.1,0.4,0.4,0.7,0.6,1.2c-2.1-0.8-3.4-2.8-4.1-5.9c-0.6,0-1.2,0-1.9,0   c-0.1-0.1-0.1-0.2-0.2-0.3c2-0.2,2.9-1.7,3.8-3c-1.5,0.5-3,1.2-4.6,1.6c-1.6,0.4-3.2,0.1-4.6-0.8c2.1-1.1,4.1-2.2,6.2-3.3   c0-0.1-0.1-0.2-0.1-0.2c-1.5-0.1-3.1-0.3-4.6-0.4c0-0.1,0-0.3,0-0.4c1.1,0,2.2,0,3.2,0c1.7-0.1,3.3-0.5,4.8-1.4   c2.4-1.5,4.9-2.1,7.7-1.5c3.3,0.7,6.8,1.2,10.2,0.6c0.1,0,0.2,0,0.3-0.1c2.1-0.4,2.4-0.8,2-3c-0.1,0-0.1-0.1-0.2-0.1   c-3.2-0.2-4.9-2.4-5.9-5.1c-0.7-2-1.1-4.1-1.7-6.2c-0.1-0.3-0.1-0.5-0.2-0.9c-2.1,0.4-4.1,0.5-5.7,2.2c-3,3.3-6.6,5.7-10.5,7.8   c-2.7,1.4-4.8,3.6-7,5.6c-0.9,0.8-1.8,1.7-2.7,2.5c-1,0.9-0.8,2.6,0.5,3.2c1,0.5,2.1,0.9,3.1,1.4c6.3,3,9.6,8.3,11.6,14.6   c0.3,0.8,0.6,1.3,1.4,1.6c5.6,2.5,11.2,4.9,16.6,7.5c3,1.4,5.8,3.3,8.6,5c2.6,1.6,5.5,1.8,8.5,1.6c1.4-0.1,2.5-0.9,3.5-1.7   c2-1.7,4-3.4,6-5.1c3.2-2.6,6.8-4,11-3.9c2,0.1,4-0.2,6-0.6c5.1-0.9,10.3-1.1,15.5-1.2c1.1,0,2.2-0.1,3.3-0.2   c1-0.1,1.7-0.6,2.1-1.6c0.3-0.9,0.7-1.7,1-2.6c0.9-2.1,2.1-2.9,4.4-2.5c1.7,0.2,3.4,0.7,5,1.1c1.9,0.5,3.7,0.6,5.6,0.2   c1.4-0.3,2.9-0.2,4.2-0.5c1.6-0.4,3.1-1.1,4.7-1.6c0.5-0.2,1-0.4,1.5-0.4c1.2-0.2,2.5-0.2,3.7-0.4c0.9-0.1,1.4,0.1,1.8,0.9   c0.5,1.2,0.7,2.3,0,3.5c-1.2,1.9-2.4,3.9-3.7,5.8c-0.4,0.6-1.1,1-1.7,1.4c-1.2,0.7-2.5,1.3-3.8,2c-2.2,1.4-4.6,2.3-7.1,3   c-1.7,0.4-3.3,1.1-5,1.5c-3,0.8-6.1,1.5-9.2,2.1c-6.2,1.1-12,3.2-17.7,5.8c-7.1,3.3-14.1,6.7-21.2,10c-2.3,1.1-4.6,2.2-7,3.1   c-1.1,0.4-2.4,0.4-3.6,0.6c-1.2,0.1-2.4,0-3.6,0.2c-3,0.6-6,0.2-9-0.2c-8.2-1.2-16.1-3.6-23.8-6.8c-1.5-0.6-3.1-0.9-4.6-1.2   c-3.6-0.6-7.1-1.4-10.3-3c-0.3-0.1-0.8-0.1-1.1,0c-6.3,2.8-13,4.1-19.8,4.4c-6,0.3-12.1,0.4-18.2,0.4c-2.9,0-5.7-0.7-8.6-0.7   c-3.3-0.1-6.7,0.2-10,0.4c-0.7,0-1.4,0.5-2,0.9c-1.4,0.8-2.7,1.8-4.1,2.6c-2.3,1.2-4.7,2.2-7,3.3c-3.6,1.7-7.3,2-11.2,1.4   c-1.4-0.2-2.9-0.2-4.3-0.2c-3.6,0.1-7.1,0.2-10.7,0.4c-0.7,0-1.4,0.2-2.1,0.3c-2.1,0.3-3.7,1-4.4,3.2c-0.7,2-2.1,3.3-4.4,3.4   c-2.4,0.1-4.6-0.6-5.9-2.9c-1.3-2.3-3.5-3.3-6-3.5c-1.5-0.1-3.1,0.1-4.7,0.3c-2,0.3-4,0.8-6,1.3c-1.3,0.3-2.1-0.1-2.8-1   c0-0.1,0-0.3,0-0.4c0.1-0.9,0.3-1.8,0.4-2.7c0.1-1.9,0.5-2.6,2.3-3.3c0.7-0.3,1.3-0.7,1.9-0.9c1.2-0.5,2.4-1,3.7-1.4   c1.6-0.4,3.3-0.7,5-1c1.3-0.3,2.6-0.6,4-0.6c2.1,0,4-0.4,6-1c1.8-0.6,3.5-1.3,5.3-1.6c4.7-0.7,9.3-1.7,13.8-3.2   c4.7-1.6,9.4-3.3,14.3-4.2c3.2-0.6,6-2,8.6-3.9c1.7-1.3,3.6-2.2,5.6-2.7c1-0.3,2-0.4,3-0.7c4.9-1.4,9.6-3.1,13.7-6.3   c1.2-0.9,2.6-1.7,4-2.2c3.5-1.4,7.3-1.6,11-1.8c1.1-0.1,2.1-0.1,3.1-0.2c0.1-0.2,0.1-0.3,0.1-0.3c0-0.2-0.1-0.4-0.1-0.5   c-1-4.9-1.2-9.9-0.7-14.9c1-9.2,2.7-18.1,6.7-26.5c1.2-2.5,2.7-4.8,4.3-7c1.5-2,3.4-3.7,5-5.7c3.4-4.3,7.7-6.9,13.1-7.3   c3.2-0.2,6.4,0,9.6,0.1c1.3,0.1,2.7,0.3,4,0.6c2.1,0.5,4.3,0.8,6.4,0.3c3.4-0.9,6.9-1.4,10.5-1.3c0.6,0,1.4-0.1,1.9-0.4   c2.5-1.3,4.9-2.7,7.4-4C186.8,73.3,186.9,73.3,187,73.3z"/>
</g>
</svg>